<mxfile host="Electron" modified="2023-10-16T13:34:07.257Z" agent="Mozilla/5.0 (Windows NT 10.0; Win64; x64) AppleWebKit/537.36 (KHTML, like Gecko) draw.io/22.0.2 Chrome/114.0.5735.289 Electron/25.8.4 Safari/537.36" etag="kii6A-fG3LDxHuOsHEYC" version="22.0.2" type="device">
  <diagram name="Page-1" id="6X6vLOPVa2SzGYuHZmyN">
    <mxGraphModel dx="880" dy="1701" grid="1" gridSize="10" guides="1" tooltips="1" connect="1" arrows="1" fold="1" page="1" pageScale="1" pageWidth="827" pageHeight="1169" math="0" shadow="0">
      <root>
        <mxCell id="0" />
        <mxCell id="1" parent="0" />
        <mxCell id="ZUUnunzUDBEL_9jYccDT-11" value="Systeme" style="verticalAlign=top;align=left;spacingTop=8;spacingLeft=2;spacingRight=12;shape=cube;size=10;direction=south;fontStyle=4;html=1;whiteSpace=wrap;" parent="1" vertex="1">
          <mxGeometry x="130" y="-10" width="600" height="1940" as="geometry" />
        </mxCell>
        <mxCell id="ZUUnunzUDBEL_9jYccDT-37" style="edgeStyle=orthogonalEdgeStyle;rounded=0;orthogonalLoop=1;jettySize=auto;html=1;exitX=0.5;exitY=0.5;exitDx=0;exitDy=0;exitPerimeter=0;entryX=0;entryY=0.5;entryDx=0;entryDy=0;" parent="1" source="ZUUnunzUDBEL_9jYccDT-13" target="ZUUnunzUDBEL_9jYccDT-16" edge="1">
          <mxGeometry relative="1" as="geometry" />
        </mxCell>
        <mxCell id="ZUUnunzUDBEL_9jYccDT-38" style="edgeStyle=orthogonalEdgeStyle;rounded=0;orthogonalLoop=1;jettySize=auto;html=1;exitX=0.5;exitY=0.5;exitDx=0;exitDy=0;exitPerimeter=0;entryX=0;entryY=0.5;entryDx=0;entryDy=0;" parent="1" source="ZUUnunzUDBEL_9jYccDT-13" target="ZUUnunzUDBEL_9jYccDT-15" edge="1">
          <mxGeometry relative="1" as="geometry" />
        </mxCell>
        <mxCell id="ZUUnunzUDBEL_9jYccDT-39" style="edgeStyle=orthogonalEdgeStyle;rounded=0;orthogonalLoop=1;jettySize=auto;html=1;exitX=0.5;exitY=0.5;exitDx=0;exitDy=0;exitPerimeter=0;entryX=0;entryY=0.5;entryDx=0;entryDy=0;" parent="1" source="ZUUnunzUDBEL_9jYccDT-13" target="ZUUnunzUDBEL_9jYccDT-17" edge="1">
          <mxGeometry relative="1" as="geometry" />
        </mxCell>
        <mxCell id="ZUUnunzUDBEL_9jYccDT-40" style="edgeStyle=orthogonalEdgeStyle;rounded=0;orthogonalLoop=1;jettySize=auto;html=1;exitX=0.5;exitY=0.5;exitDx=0;exitDy=0;exitPerimeter=0;entryX=0;entryY=0.5;entryDx=0;entryDy=0;" parent="1" source="ZUUnunzUDBEL_9jYccDT-13" target="ZUUnunzUDBEL_9jYccDT-18" edge="1">
          <mxGeometry relative="1" as="geometry" />
        </mxCell>
        <mxCell id="ZUUnunzUDBEL_9jYccDT-41" style="edgeStyle=orthogonalEdgeStyle;rounded=0;orthogonalLoop=1;jettySize=auto;html=1;exitX=0.5;exitY=0.5;exitDx=0;exitDy=0;exitPerimeter=0;entryX=0;entryY=0.5;entryDx=0;entryDy=0;" parent="1" source="ZUUnunzUDBEL_9jYccDT-13" target="ZUUnunzUDBEL_9jYccDT-19" edge="1">
          <mxGeometry relative="1" as="geometry" />
        </mxCell>
        <mxCell id="ZUUnunzUDBEL_9jYccDT-42" style="edgeStyle=orthogonalEdgeStyle;rounded=0;orthogonalLoop=1;jettySize=auto;html=1;exitX=0.5;exitY=0.5;exitDx=0;exitDy=0;exitPerimeter=0;entryX=0;entryY=0.5;entryDx=0;entryDy=0;" parent="1" source="ZUUnunzUDBEL_9jYccDT-13" target="ZUUnunzUDBEL_9jYccDT-25" edge="1">
          <mxGeometry relative="1" as="geometry" />
        </mxCell>
        <mxCell id="ZUUnunzUDBEL_9jYccDT-43" style="edgeStyle=orthogonalEdgeStyle;rounded=0;orthogonalLoop=1;jettySize=auto;html=1;exitX=0.5;exitY=0.5;exitDx=0;exitDy=0;exitPerimeter=0;entryX=0;entryY=0.5;entryDx=0;entryDy=0;" parent="1" source="ZUUnunzUDBEL_9jYccDT-13" target="ZUUnunzUDBEL_9jYccDT-27" edge="1">
          <mxGeometry relative="1" as="geometry" />
        </mxCell>
        <mxCell id="ZUUnunzUDBEL_9jYccDT-44" style="edgeStyle=orthogonalEdgeStyle;rounded=0;orthogonalLoop=1;jettySize=auto;html=1;exitX=0.5;exitY=0.5;exitDx=0;exitDy=0;exitPerimeter=0;entryX=0;entryY=0.5;entryDx=0;entryDy=0;" parent="1" source="ZUUnunzUDBEL_9jYccDT-13" target="ZUUnunzUDBEL_9jYccDT-21" edge="1">
          <mxGeometry relative="1" as="geometry">
            <Array as="points">
              <mxPoint x="55" y="135" />
            </Array>
          </mxGeometry>
        </mxCell>
        <mxCell id="ZUUnunzUDBEL_9jYccDT-46" style="edgeStyle=orthogonalEdgeStyle;rounded=0;orthogonalLoop=1;jettySize=auto;html=1;exitX=0.5;exitY=0.5;exitDx=0;exitDy=0;exitPerimeter=0;entryX=0;entryY=0.5;entryDx=0;entryDy=0;" parent="1" source="ZUUnunzUDBEL_9jYccDT-13" target="ZUUnunzUDBEL_9jYccDT-20" edge="1">
          <mxGeometry relative="1" as="geometry">
            <Array as="points">
              <mxPoint x="55" y="225" />
            </Array>
          </mxGeometry>
        </mxCell>
        <mxCell id="ZUUnunzUDBEL_9jYccDT-47" style="edgeStyle=orthogonalEdgeStyle;rounded=0;orthogonalLoop=1;jettySize=auto;html=1;exitX=0.5;exitY=0.5;exitDx=0;exitDy=0;exitPerimeter=0;entryX=0;entryY=0.5;entryDx=0;entryDy=0;" parent="1" source="ZUUnunzUDBEL_9jYccDT-13" target="ZUUnunzUDBEL_9jYccDT-23" edge="1">
          <mxGeometry relative="1" as="geometry">
            <Array as="points">
              <mxPoint x="55" y="325" />
            </Array>
          </mxGeometry>
        </mxCell>
        <mxCell id="ZUUnunzUDBEL_9jYccDT-48" style="edgeStyle=orthogonalEdgeStyle;rounded=0;orthogonalLoop=1;jettySize=auto;html=1;exitX=0.5;exitY=0.5;exitDx=0;exitDy=0;exitPerimeter=0;entryX=0;entryY=0.5;entryDx=0;entryDy=0;" parent="1" source="ZUUnunzUDBEL_9jYccDT-13" target="ZUUnunzUDBEL_9jYccDT-24" edge="1">
          <mxGeometry relative="1" as="geometry">
            <Array as="points">
              <mxPoint x="55" y="415" />
            </Array>
          </mxGeometry>
        </mxCell>
        <mxCell id="ZUUnunzUDBEL_9jYccDT-51" style="edgeStyle=orthogonalEdgeStyle;rounded=0;orthogonalLoop=1;jettySize=auto;html=1;exitX=0.5;exitY=0.5;exitDx=0;exitDy=0;exitPerimeter=0;entryX=0;entryY=0.5;entryDx=0;entryDy=0;" parent="1" source="ZUUnunzUDBEL_9jYccDT-13" target="ZUUnunzUDBEL_9jYccDT-26" edge="1">
          <mxGeometry relative="1" as="geometry">
            <Array as="points">
              <mxPoint x="55" y="515" />
            </Array>
          </mxGeometry>
        </mxCell>
        <mxCell id="ZUUnunzUDBEL_9jYccDT-13" value="Client" style="shape=umlActor;verticalLabelPosition=bottom;verticalAlign=top;html=1;" parent="1" vertex="1">
          <mxGeometry x="40" y="80" width="30" height="60" as="geometry" />
        </mxCell>
        <mxCell id="3Ixo2uA34yAMwzZ4mzz1-24" style="edgeStyle=orthogonalEdgeStyle;rounded=0;orthogonalLoop=1;jettySize=auto;html=1;exitX=0.5;exitY=0.5;exitDx=0;exitDy=0;exitPerimeter=0;entryX=0;entryY=0.5;entryDx=0;entryDy=0;" edge="1" parent="1" source="ZUUnunzUDBEL_9jYccDT-14" target="LImkp27KRnDCAgaCyZoW-7">
          <mxGeometry relative="1" as="geometry">
            <Array as="points">
              <mxPoint x="90" y="990" />
              <mxPoint x="90" y="1100" />
            </Array>
          </mxGeometry>
        </mxCell>
        <mxCell id="3Ixo2uA34yAMwzZ4mzz1-25" style="edgeStyle=orthogonalEdgeStyle;rounded=0;orthogonalLoop=1;jettySize=auto;html=1;exitX=0.5;exitY=0.5;exitDx=0;exitDy=0;exitPerimeter=0;entryX=0;entryY=0.5;entryDx=0;entryDy=0;" edge="1" parent="1" source="ZUUnunzUDBEL_9jYccDT-14" target="LImkp27KRnDCAgaCyZoW-10">
          <mxGeometry relative="1" as="geometry">
            <Array as="points">
              <mxPoint x="90" y="990" />
              <mxPoint x="90" y="1230" />
            </Array>
          </mxGeometry>
        </mxCell>
        <mxCell id="3Ixo2uA34yAMwzZ4mzz1-26" style="edgeStyle=orthogonalEdgeStyle;rounded=0;orthogonalLoop=1;jettySize=auto;html=1;exitX=0.5;exitY=0.5;exitDx=0;exitDy=0;exitPerimeter=0;entryX=0;entryY=0.5;entryDx=0;entryDy=0;" edge="1" parent="1" source="ZUUnunzUDBEL_9jYccDT-14" target="LImkp27KRnDCAgaCyZoW-12">
          <mxGeometry relative="1" as="geometry">
            <Array as="points">
              <mxPoint x="90" y="990" />
              <mxPoint x="90" y="1350" />
            </Array>
          </mxGeometry>
        </mxCell>
        <mxCell id="3Ixo2uA34yAMwzZ4mzz1-27" style="edgeStyle=orthogonalEdgeStyle;rounded=0;orthogonalLoop=1;jettySize=auto;html=1;exitX=0.5;exitY=0.5;exitDx=0;exitDy=0;exitPerimeter=0;entryX=0;entryY=0.5;entryDx=0;entryDy=0;" edge="1" parent="1" source="ZUUnunzUDBEL_9jYccDT-14" target="LImkp27KRnDCAgaCyZoW-14">
          <mxGeometry relative="1" as="geometry">
            <Array as="points">
              <mxPoint x="90" y="990" />
              <mxPoint x="90" y="1490" />
            </Array>
          </mxGeometry>
        </mxCell>
        <mxCell id="3Ixo2uA34yAMwzZ4mzz1-28" style="edgeStyle=orthogonalEdgeStyle;rounded=0;orthogonalLoop=1;jettySize=auto;html=1;exitX=0.5;exitY=0.5;exitDx=0;exitDy=0;exitPerimeter=0;entryX=0;entryY=0.5;entryDx=0;entryDy=0;" edge="1" parent="1" source="ZUUnunzUDBEL_9jYccDT-14" target="LImkp27KRnDCAgaCyZoW-17">
          <mxGeometry relative="1" as="geometry">
            <Array as="points">
              <mxPoint x="90" y="990" />
              <mxPoint x="90" y="1670" />
            </Array>
          </mxGeometry>
        </mxCell>
        <mxCell id="3Ixo2uA34yAMwzZ4mzz1-29" style="edgeStyle=orthogonalEdgeStyle;rounded=0;orthogonalLoop=1;jettySize=auto;html=1;exitX=0.5;exitY=0.5;exitDx=0;exitDy=0;exitPerimeter=0;entryX=0;entryY=0.5;entryDx=0;entryDy=0;" edge="1" parent="1" source="ZUUnunzUDBEL_9jYccDT-14" target="LImkp27KRnDCAgaCyZoW-20">
          <mxGeometry relative="1" as="geometry">
            <Array as="points">
              <mxPoint x="90" y="990" />
              <mxPoint x="90" y="1820" />
            </Array>
          </mxGeometry>
        </mxCell>
        <mxCell id="3Ixo2uA34yAMwzZ4mzz1-31" style="edgeStyle=orthogonalEdgeStyle;rounded=0;orthogonalLoop=1;jettySize=auto;html=1;exitX=1;exitY=1;exitDx=0;exitDy=0;exitPerimeter=0;entryX=0;entryY=0.5;entryDx=0;entryDy=0;" edge="1" parent="1" source="ZUUnunzUDBEL_9jYccDT-14" target="LImkp27KRnDCAgaCyZoW-8">
          <mxGeometry relative="1" as="geometry" />
        </mxCell>
        <mxCell id="3Ixo2uA34yAMwzZ4mzz1-32" style="edgeStyle=orthogonalEdgeStyle;rounded=0;orthogonalLoop=1;jettySize=auto;html=1;exitX=1;exitY=1;exitDx=0;exitDy=0;exitPerimeter=0;entryX=0;entryY=0.5;entryDx=0;entryDy=0;" edge="1" parent="1" source="ZUUnunzUDBEL_9jYccDT-14" target="LImkp27KRnDCAgaCyZoW-9">
          <mxGeometry relative="1" as="geometry" />
        </mxCell>
        <mxCell id="3Ixo2uA34yAMwzZ4mzz1-33" style="edgeStyle=orthogonalEdgeStyle;rounded=0;orthogonalLoop=1;jettySize=auto;html=1;exitX=1;exitY=1;exitDx=0;exitDy=0;exitPerimeter=0;entryX=0;entryY=0.5;entryDx=0;entryDy=0;" edge="1" parent="1" source="ZUUnunzUDBEL_9jYccDT-14" target="LImkp27KRnDCAgaCyZoW-11">
          <mxGeometry relative="1" as="geometry">
            <Array as="points">
              <mxPoint x="50" y="1290" />
              <mxPoint x="433" y="1290" />
            </Array>
          </mxGeometry>
        </mxCell>
        <mxCell id="3Ixo2uA34yAMwzZ4mzz1-34" style="edgeStyle=orthogonalEdgeStyle;rounded=0;orthogonalLoop=1;jettySize=auto;html=1;exitX=1;exitY=1;exitDx=0;exitDy=0;exitPerimeter=0;entryX=0;entryY=0.5;entryDx=0;entryDy=0;" edge="1" parent="1" source="ZUUnunzUDBEL_9jYccDT-14" target="LImkp27KRnDCAgaCyZoW-13">
          <mxGeometry relative="1" as="geometry" />
        </mxCell>
        <mxCell id="3Ixo2uA34yAMwzZ4mzz1-35" style="edgeStyle=orthogonalEdgeStyle;rounded=0;orthogonalLoop=1;jettySize=auto;html=1;exitX=1;exitY=1;exitDx=0;exitDy=0;exitPerimeter=0;entryX=0;entryY=0.5;entryDx=0;entryDy=0;" edge="1" parent="1" source="ZUUnunzUDBEL_9jYccDT-14" target="LImkp27KRnDCAgaCyZoW-16">
          <mxGeometry relative="1" as="geometry" />
        </mxCell>
        <mxCell id="3Ixo2uA34yAMwzZ4mzz1-36" style="edgeStyle=orthogonalEdgeStyle;rounded=0;orthogonalLoop=1;jettySize=auto;html=1;exitX=1;exitY=1;exitDx=0;exitDy=0;exitPerimeter=0;entryX=0;entryY=0.5;entryDx=0;entryDy=0;" edge="1" parent="1" source="ZUUnunzUDBEL_9jYccDT-14" target="LImkp27KRnDCAgaCyZoW-18">
          <mxGeometry relative="1" as="geometry" />
        </mxCell>
        <mxCell id="3Ixo2uA34yAMwzZ4mzz1-37" style="edgeStyle=orthogonalEdgeStyle;rounded=0;orthogonalLoop=1;jettySize=auto;html=1;exitX=1;exitY=1;exitDx=0;exitDy=0;exitPerimeter=0;entryX=0;entryY=0.5;entryDx=0;entryDy=0;" edge="1" parent="1" source="ZUUnunzUDBEL_9jYccDT-14" target="LImkp27KRnDCAgaCyZoW-19">
          <mxGeometry relative="1" as="geometry" />
        </mxCell>
        <mxCell id="ZUUnunzUDBEL_9jYccDT-14" value="Admin" style="shape=umlActor;verticalLabelPosition=bottom;verticalAlign=top;html=1;" parent="1" vertex="1">
          <mxGeometry x="20" y="960" width="30" height="60" as="geometry" />
        </mxCell>
        <mxCell id="ZUUnunzUDBEL_9jYccDT-15" value="gerer le profil utilisateur" style="ellipse;whiteSpace=wrap;html=1;" parent="1" vertex="1">
          <mxGeometry x="220" y="150" width="140" height="70" as="geometry" />
        </mxCell>
        <mxCell id="ZUUnunzUDBEL_9jYccDT-16" value="Creer un compteur utilisateur" style="ellipse;whiteSpace=wrap;html=1;" parent="1" vertex="1">
          <mxGeometry x="220" y="60" width="140" height="70" as="geometry" />
        </mxCell>
        <mxCell id="ZUUnunzUDBEL_9jYccDT-17" value="consulter catalogue" style="ellipse;whiteSpace=wrap;html=1;" parent="1" vertex="1">
          <mxGeometry x="220" y="240" width="140" height="70" as="geometry" />
        </mxCell>
        <mxCell id="ZUUnunzUDBEL_9jYccDT-18" value="filtrer et trier les vetements" style="ellipse;whiteSpace=wrap;html=1;" parent="1" vertex="1">
          <mxGeometry x="220" y="330" width="140" height="70" as="geometry" />
        </mxCell>
        <mxCell id="ZUUnunzUDBEL_9jYccDT-19" value="rechercher des articles" style="ellipse;whiteSpace=wrap;html=1;" parent="1" vertex="1">
          <mxGeometry x="220" y="420" width="140" height="70" as="geometry" />
        </mxCell>
        <mxCell id="ZUUnunzUDBEL_9jYccDT-20" value="suivre l&#39;historique des achats" style="ellipse;whiteSpace=wrap;html=1;" parent="1" vertex="1">
          <mxGeometry x="380" y="190" width="140" height="70" as="geometry" />
        </mxCell>
        <mxCell id="ZUUnunzUDBEL_9jYccDT-21" value="noter et laisser des avis" style="ellipse;whiteSpace=wrap;html=1;" parent="1" vertex="1">
          <mxGeometry x="380" y="100" width="140" height="70" as="geometry" />
        </mxCell>
        <mxCell id="ZUUnunzUDBEL_9jYccDT-23" value="ajouter des articles panier" style="ellipse;whiteSpace=wrap;html=1;" parent="1" vertex="1">
          <mxGeometry x="380" y="290" width="140" height="70" as="geometry" />
        </mxCell>
        <mxCell id="ZUUnunzUDBEL_9jYccDT-24" value="effectuer un paiment securiser" style="ellipse;whiteSpace=wrap;html=1;" parent="1" vertex="1">
          <mxGeometry x="380" y="380" width="140" height="70" as="geometry" />
        </mxCell>
        <mxCell id="ZUUnunzUDBEL_9jYccDT-25" value="creer une liste de souhait&amp;nbsp;" style="ellipse;whiteSpace=wrap;html=1;" parent="1" vertex="1">
          <mxGeometry x="220" y="510" width="140" height="70" as="geometry" />
        </mxCell>
        <mxCell id="ZUUnunzUDBEL_9jYccDT-26" value="recevoir des notifs en temps reel" style="ellipse;whiteSpace=wrap;html=1;" parent="1" vertex="1">
          <mxGeometry x="380" y="480" width="140" height="70" as="geometry" />
        </mxCell>
        <mxCell id="ZUUnunzUDBEL_9jYccDT-27" value="supprimer une commande" style="ellipse;whiteSpace=wrap;html=1;" parent="1" vertex="1">
          <mxGeometry x="220" y="600" width="140" height="70" as="geometry" />
        </mxCell>
        <mxCell id="ZUUnunzUDBEL_9jYccDT-33" value="" style="line;strokeWidth=1;fillColor=none;align=left;verticalAlign=middle;spacingTop=-1;spacingLeft=3;spacingRight=3;rotatable=0;labelPosition=right;points=[];portConstraint=eastwest;strokeColor=inherit;" parent="1" vertex="1">
          <mxGeometry x="430" y="300" width="40" height="8" as="geometry" />
        </mxCell>
        <mxCell id="ZUUnunzUDBEL_9jYccDT-34" value="" style="line;strokeWidth=1;fillColor=none;align=left;verticalAlign=middle;spacingTop=-1;spacingLeft=3;spacingRight=3;rotatable=0;labelPosition=right;points=[];portConstraint=eastwest;strokeColor=inherit;" parent="1" vertex="1">
          <mxGeometry x="130" y="10" width="40" height="80" as="geometry" />
        </mxCell>
        <mxCell id="ZUUnunzUDBEL_9jYccDT-54" value="Utilisateur" style="swimlane;fontStyle=0;childLayout=stackLayout;horizontal=1;startSize=26;fillColor=none;horizontalStack=0;resizeParent=1;resizeParentMax=0;resizeLast=0;collapsible=1;marginBottom=0;whiteSpace=wrap;html=1;" parent="1" vertex="1">
          <mxGeometry x="170" y="740" width="140" height="130" as="geometry" />
        </mxCell>
        <mxCell id="ZUUnunzUDBEL_9jYccDT-55" value="Nom" style="text;strokeColor=none;fillColor=none;align=left;verticalAlign=top;spacingLeft=4;spacingRight=4;overflow=hidden;rotatable=0;points=[[0,0.5],[1,0.5]];portConstraint=eastwest;whiteSpace=wrap;html=1;" parent="ZUUnunzUDBEL_9jYccDT-54" vertex="1">
          <mxGeometry y="26" width="140" height="26" as="geometry" />
        </mxCell>
        <mxCell id="ZUUnunzUDBEL_9jYccDT-56" value="Adresse mail" style="text;strokeColor=none;fillColor=none;align=left;verticalAlign=top;spacingLeft=4;spacingRight=4;overflow=hidden;rotatable=0;points=[[0,0.5],[1,0.5]];portConstraint=eastwest;whiteSpace=wrap;html=1;" parent="ZUUnunzUDBEL_9jYccDT-54" vertex="1">
          <mxGeometry y="52" width="140" height="26" as="geometry" />
        </mxCell>
        <mxCell id="ZUUnunzUDBEL_9jYccDT-57" value="Mot de passe&lt;br&gt;&lt;br&gt;Sexe" style="text;strokeColor=none;fillColor=none;align=left;verticalAlign=top;spacingLeft=4;spacingRight=4;overflow=hidden;rotatable=0;points=[[0,0.5],[1,0.5]];portConstraint=eastwest;whiteSpace=wrap;html=1;" parent="ZUUnunzUDBEL_9jYccDT-54" vertex="1">
          <mxGeometry y="78" width="140" height="52" as="geometry" />
        </mxCell>
        <mxCell id="ZUUnunzUDBEL_9jYccDT-59" value="Vetements" style="swimlane;fontStyle=0;childLayout=stackLayout;horizontal=1;startSize=26;fillColor=none;horizontalStack=0;resizeParent=1;resizeParentMax=0;resizeLast=0;collapsible=1;marginBottom=0;whiteSpace=wrap;html=1;" parent="1" vertex="1">
          <mxGeometry x="550" y="740" width="140" height="140" as="geometry" />
        </mxCell>
        <mxCell id="ZUUnunzUDBEL_9jYccDT-60" value="Nom" style="text;strokeColor=none;fillColor=none;align=left;verticalAlign=top;spacingLeft=4;spacingRight=4;overflow=hidden;rotatable=0;points=[[0,0.5],[1,0.5]];portConstraint=eastwest;whiteSpace=wrap;html=1;" parent="ZUUnunzUDBEL_9jYccDT-59" vertex="1">
          <mxGeometry y="26" width="140" height="26" as="geometry" />
        </mxCell>
        <mxCell id="ZUUnunzUDBEL_9jYccDT-61" value="Categorie" style="text;strokeColor=none;fillColor=none;align=left;verticalAlign=top;spacingLeft=4;spacingRight=4;overflow=hidden;rotatable=0;points=[[0,0.5],[1,0.5]];portConstraint=eastwest;whiteSpace=wrap;html=1;" parent="ZUUnunzUDBEL_9jYccDT-59" vertex="1">
          <mxGeometry y="52" width="140" height="26" as="geometry" />
        </mxCell>
        <mxCell id="ZUUnunzUDBEL_9jYccDT-62" value="Taille&lt;br&gt;&lt;br&gt;Couleur" style="text;strokeColor=none;fillColor=none;align=left;verticalAlign=top;spacingLeft=4;spacingRight=4;overflow=hidden;rotatable=0;points=[[0,0.5],[1,0.5]];portConstraint=eastwest;whiteSpace=wrap;html=1;" parent="ZUUnunzUDBEL_9jYccDT-59" vertex="1">
          <mxGeometry y="78" width="140" height="62" as="geometry" />
        </mxCell>
        <mxCell id="ZUUnunzUDBEL_9jYccDT-63" value="Panier" style="swimlane;fontStyle=0;childLayout=stackLayout;horizontal=1;startSize=26;fillColor=none;horizontalStack=0;resizeParent=1;resizeParentMax=0;resizeLast=0;collapsible=1;marginBottom=0;whiteSpace=wrap;html=1;" parent="1" vertex="1">
          <mxGeometry x="360" y="750" width="140" height="78" as="geometry" />
        </mxCell>
        <mxCell id="ZUUnunzUDBEL_9jYccDT-64" value="Article" style="text;strokeColor=none;fillColor=none;align=left;verticalAlign=top;spacingLeft=4;spacingRight=4;overflow=hidden;rotatable=0;points=[[0,0.5],[1,0.5]];portConstraint=eastwest;whiteSpace=wrap;html=1;" parent="ZUUnunzUDBEL_9jYccDT-63" vertex="1">
          <mxGeometry y="26" width="140" height="26" as="geometry" />
        </mxCell>
        <mxCell id="ZUUnunzUDBEL_9jYccDT-65" value="Paiement" style="text;strokeColor=none;fillColor=none;align=left;verticalAlign=top;spacingLeft=4;spacingRight=4;overflow=hidden;rotatable=0;points=[[0,0.5],[1,0.5]];portConstraint=eastwest;whiteSpace=wrap;html=1;" parent="ZUUnunzUDBEL_9jYccDT-63" vertex="1">
          <mxGeometry y="52" width="140" height="26" as="geometry" />
        </mxCell>
        <mxCell id="LImkp27KRnDCAgaCyZoW-6" value="Authentification" style="ellipse;whiteSpace=wrap;html=1;" parent="1" vertex="1">
          <mxGeometry x="207.5" y="950" width="140" height="70" as="geometry" />
        </mxCell>
        <mxCell id="LImkp27KRnDCAgaCyZoW-7" value="Gestion des Utilisateurs" style="ellipse;whiteSpace=wrap;html=1;" parent="1" vertex="1">
          <mxGeometry x="200" y="1060" width="140" height="80" as="geometry" />
        </mxCell>
        <mxCell id="LImkp27KRnDCAgaCyZoW-8" value="Ajout de nouveau produits" style="ellipse;whiteSpace=wrap;html=1;" parent="1" vertex="1">
          <mxGeometry x="400" y="1000" width="160" height="80" as="geometry" />
        </mxCell>
        <mxCell id="LImkp27KRnDCAgaCyZoW-9" value="Mise a jour des informations sur les produits existants" style="ellipse;whiteSpace=wrap;html=1;" parent="1" vertex="1">
          <mxGeometry x="400" y="1110" width="160" height="80" as="geometry" />
        </mxCell>
        <mxCell id="LImkp27KRnDCAgaCyZoW-10" value="Suppression de produit" style="ellipse;whiteSpace=wrap;html=1;" parent="1" vertex="1">
          <mxGeometry x="200" y="1190" width="140" height="80" as="geometry" />
        </mxCell>
        <mxCell id="LImkp27KRnDCAgaCyZoW-11" value="Afficher les commandes en attentes" style="ellipse;whiteSpace=wrap;html=1;" parent="1" vertex="1">
          <mxGeometry x="405" y="1250" width="150" height="80" as="geometry" />
        </mxCell>
        <mxCell id="LImkp27KRnDCAgaCyZoW-12" value="Marqué les commandes comme traitées" style="ellipse;whiteSpace=wrap;html=1;" parent="1" vertex="1">
          <mxGeometry x="200" y="1310" width="140" height="80" as="geometry" />
        </mxCell>
        <mxCell id="LImkp27KRnDCAgaCyZoW-13" value="Annulation d&#39;une commande ou traité des retours" style="ellipse;whiteSpace=wrap;html=1;" parent="1" vertex="1">
          <mxGeometry x="402.5" y="1370" width="155" height="80" as="geometry" />
        </mxCell>
        <mxCell id="LImkp27KRnDCAgaCyZoW-14" value="Crée, mettre a jour ou supprimer des catégories existantes" style="ellipse;whiteSpace=wrap;html=1;" parent="1" vertex="1">
          <mxGeometry x="185" y="1450" width="170" height="80" as="geometry" />
        </mxCell>
        <mxCell id="LImkp27KRnDCAgaCyZoW-16" value="Gestion des promotions" style="ellipse;whiteSpace=wrap;html=1;" parent="1" vertex="1">
          <mxGeometry x="437.5" y="1540" width="140" height="80" as="geometry" />
        </mxCell>
        <mxCell id="LImkp27KRnDCAgaCyZoW-17" value="Mettre a jour le contenu du site web (images, description produit ect..)" style="ellipse;whiteSpace=wrap;html=1;" parent="1" vertex="1">
          <mxGeometry x="190" y="1630" width="160" height="80" as="geometry" />
        </mxCell>
        <mxCell id="LImkp27KRnDCAgaCyZoW-18" value="Gestion des commentaires&lt;br&gt;(afficher, approuver ou supprier)" style="ellipse;whiteSpace=wrap;html=1;" parent="1" vertex="1">
          <mxGeometry x="432.5" y="1714" width="150" height="80" as="geometry" />
        </mxCell>
        <mxCell id="LImkp27KRnDCAgaCyZoW-19" value="Générer des rapports sur les ventes (stocks, autres données pertinente)&amp;nbsp;" style="ellipse;whiteSpace=wrap;html=1;" parent="1" vertex="1">
          <mxGeometry x="422.5" y="1830" width="165" height="90" as="geometry" />
        </mxCell>
        <mxCell id="LImkp27KRnDCAgaCyZoW-20" value="Deconnexion" style="ellipse;whiteSpace=wrap;html=1;" parent="1" vertex="1">
          <mxGeometry x="210" y="1780" width="120" height="80" as="geometry" />
        </mxCell>
        <mxCell id="3Ixo2uA34yAMwzZ4mzz1-23" style="edgeStyle=orthogonalEdgeStyle;rounded=0;orthogonalLoop=1;jettySize=auto;html=1;exitX=0.5;exitY=0.5;exitDx=0;exitDy=0;exitPerimeter=0;" edge="1" parent="1" source="ZUUnunzUDBEL_9jYccDT-14">
          <mxGeometry relative="1" as="geometry">
            <mxPoint x="210" y="990" as="targetPoint" />
          </mxGeometry>
        </mxCell>
      </root>
    </mxGraphModel>
  </diagram>
</mxfile>
